<svg width="402" height="874" viewBox="0 0 402 874" fill="none" xmlns="http://www.w3.org/2000/svg">
<rect width="402" height="874" fill="white"/>
<path d="M0 0H402V318C402 326.837 394.837 334 386 334H16C7.16345 334 0 326.837 0 318V0Z" fill="#FFF5E6"/>
<g opacity="0.27">
<g clip-path="url(#clip0_237_2547)">
<path d="M332.95 263.669C371.161 263.669 402.136 293.726 402.136 330.803C402.136 367.88 371.161 397.937 332.95 397.937C294.74 397.937 263.764 367.88 263.764 330.803C263.764 293.726 294.74 263.669 332.95 263.669Z" fill="#FEDB03"/>
<path d="M243.818 217.52H199.266C182.869 217.52 169.577 230.417 169.577 246.329V345.504H243.818V217.52Z" fill="#FEEC7B"/>
<path d="M342.18 345.504H302.96V231.637H342.18V345.504Z" fill="#FEEC7B"/>
<path d="M302.96 270.287C312.035 266.044 322.205 263.669 332.95 263.669C336.08 263.669 339.163 263.875 342.18 264.268V345.504H302.96V270.287Z" fill="#E4A70A"/>
<path d="M128.701 269.127H43.9837V127.095H128.701V269.127Z" fill="#FEEC7B"/>
<path d="M80.224 294.656V243.598H201.177V294.656H80.224ZM169.573 251.658C159.633 251.658 151.57 259.477 151.57 269.127C151.57 278.772 159.628 286.595 169.573 286.595C179.513 286.595 187.575 278.777 187.575 269.127C187.575 259.477 179.518 251.658 169.573 251.658Z" fill="#FEDB03"/>
<path d="M243.818 248.804C260.714 248.804 274.411 262.094 274.411 278.489C274.411 294.884 260.714 308.174 243.818 308.174C226.922 308.174 213.226 294.884 213.226 278.489C213.226 262.094 226.922 248.804 243.818 248.804Z" fill="#E4A70A"/>
<path d="M44 334H0V269.443H44V334Z" fill="#FEDB03"/>
<path d="M111.607 334H80.0733V294.724H111.607V334Z" fill="#FEEC7B"/>
<path d="M288.295 248.804H243.818V217.52H288.295V248.804Z" fill="#FEDB03"/>
<path d="M28.0044 216.667C31.1816 217.394 33.1491 220.484 32.3989 223.567C31.6486 226.65 28.4648 228.559 25.2875 227.831C22.1102 227.103 20.1427 224.014 20.8929 220.931C21.6432 217.848 24.8271 215.939 28.0044 216.667Z" fill="white"/>
<path d="M141.97 302.571C145.158 303.255 147.171 306.317 146.466 309.41C145.762 312.503 142.606 314.456 139.419 313.773C136.231 313.089 134.218 310.027 134.922 306.934C135.627 303.841 138.782 301.888 141.97 302.571Z" fill="white"/>
<path d="M-29.3864 222.727C-12.4429 251.498 -3.2652 272.73 49.6786 278.21C102.622 283.691 118.836 309.037 115.33 342.6" stroke="white" stroke-miterlimit="10"/>
<path d="M110.002 265.633L112.699 270.168L115.396 265.633H110.002Z" fill="#FEDB03"/>
<path d="M256.069 298.766L258.766 303.297L261.463 298.766H256.069Z" fill="#FEDB03"/>
<path d="M240.877 281.005C240.877 281.923 240.109 282.668 239.163 282.668C238.217 282.668 237.45 281.923 237.45 281.005C237.45 280.087 238.217 279.343 239.163 279.343C240.109 279.343 240.877 280.087 240.877 281.005Z" fill="white"/>
<path d="M70.0484 303.297C70.0484 304.214 69.2813 304.959 68.3353 304.959C67.3892 304.959 66.6221 304.214 66.6221 303.297C66.6221 302.379 67.3892 301.634 68.3353 301.634C69.2813 301.634 70.0484 302.379 70.0484 303.297Z" fill="white"/>
<path d="M335.078 298.766C335.078 299.684 334.311 300.428 333.365 300.428C332.419 300.428 331.652 299.684 331.652 298.766C331.652 297.848 332.419 297.104 333.365 297.104C334.311 297.104 335.078 297.848 335.078 298.766Z" fill="white"/>
<path d="M154.116 222.727C154.116 223.645 153.349 224.389 152.403 224.389C151.457 224.389 150.69 223.645 150.69 222.727C150.69 221.809 151.457 221.064 152.403 221.064C153.349 221.064 154.116 221.809 154.116 222.727Z" fill="white"/>
</g>
</g>
<defs>
<clipPath id="clip0_237_2547">
<path d="M0 318C0 326.837 7.16344 334 16 334H386C394.837 334 402 326.837 402 318V234C402 225.163 394.837 218 386 218H16C7.16345 218 0 225.163 0 234V318Z" fill="white"/>
</clipPath>
</defs>
</svg>
