<svg width="255" height="65" viewBox="0 0 255 65" fill="none" xmlns="http://www.w3.org/2000/svg">
<path fill-rule="evenodd" clip-rule="evenodd" d="M54.8691 51.059L60.1823 22.304C60.4368 20.6243 60.138 18.9141 59.3233 17.3869C58.5311 15.8543 57.2457 14.569 55.6327 13.7063L35.0483 2.20432C33.542 1.36457 31.8071 0.919854 30.0374 0.919854C28.2676 0.919854 26.5327 1.36457 25.0265 2.20432L4.4102 13.7063C2.84978 14.6045 1.61181 15.8932 0.846894 17.4157C0.0817237 18.946 -0.172592 20.645 0.115144 22.304L5.42829 51.059C5.80827 53.0503 6.94958 54.8578 8.65318 56.1663C10.3568 57.4748 12.5145 58.2013 14.7501 58.219H45.3246C47.637 58.2206 49.8811 57.5108 51.6876 56.2062C53.3841 54.8814 54.5104 53.0592 54.8691 51.059ZM40.5018 46.7043C40.6878 46.7609 40.8872 46.7892 41.0998 46.7892C41.3124 46.7901 41.5118 46.7618 41.6978 46.7043C41.8839 46.6467 42.0566 46.5495 42.2161 46.4126L45.6049 43.5029C45.7666 43.3659 45.8798 43.2176 45.9446 43.0579C46.0095 42.8981 46.0424 42.7269 46.0435 42.5444C46.0446 42.3618 46.0116 42.1906 45.9446 42.0309C45.8777 41.8711 45.7644 41.7228 45.6049 41.5859L37.4717 34.6025C37.3123 34.4674 37.1395 34.3707 36.9535 34.3122C36.7674 34.2538 36.5681 34.2251 36.3554 34.226C36.1428 34.2269 35.9434 34.2556 35.7574 34.3122C35.5713 34.3688 35.3986 34.4656 35.2391 34.6025L31.8503 37.5122C31.6908 37.6492 31.5781 37.7975 31.5122 37.9573C31.4463 38.117 31.4128 38.2882 31.4117 38.4707C31.4106 38.6533 31.4436 38.8245 31.5106 38.9842C31.5776 39.144 31.6908 39.2923 31.8503 39.4292L39.9835 46.4126C40.1429 46.5504 40.3157 46.6477 40.5018 46.7043ZM18.5947 46.7207C18.7935 46.7892 18.9993 46.8234 19.2119 46.8234C19.4245 46.8234 19.6239 46.7892 19.8099 46.7207C19.996 46.6522 20.1687 46.5495 20.3282 46.4126L28.7804 39.1554V36.2799L37.0332 29.1938L38.7077 30.6316L40.9403 28.7146L44.3292 31.6243C44.781 31.2373 45.1265 30.7923 45.3657 30.2893C45.6049 29.7863 45.7246 29.2614 45.7246 28.7146C45.7246 28.1678 45.6049 27.6488 45.3657 27.1577C45.1265 26.6666 44.781 26.2271 44.3292 25.8391L38.6678 20.9781L36.4352 22.8951V19.0269L35.3188 18.0684L29.6575 22.9294L30.7738 23.8879H35.279L33.0463 25.8049L34.7607 27.2768L30.1359 31.2478L23.5576 25.5995V23.6482L18.7335 19.5062L14.2283 23.3744L19.0524 27.5165H21.3249L27.9033 33.1661L26.5477 34.33H23.1589L14.7067 41.5872C14.5473 41.7223 14.4277 41.8707 14.3479 42.0323C14.2682 42.1938 14.2283 42.365 14.2283 42.5457C14.2283 42.7265 14.2682 42.9027 14.3479 43.0743C14.4277 43.2459 14.5473 43.4002 14.7067 43.5371L18.0557 46.4126C18.2162 46.5495 18.3959 46.6522 18.5947 46.7207Z" fill="#FCB040"/>
<path d="M87.6676 20.815C87.6676 22.0509 87.3375 23.1874 86.6772 24.2247C86.0397 25.2619 85.0835 26.0895 83.8085 26.7074C82.5563 27.3254 81.0308 27.6343 79.2322 27.6343C76.5228 27.6343 74.2915 26.9943 72.5384 25.7143C70.7853 24.4343 69.829 22.6468 69.6697 20.3516H75.8853C75.9763 21.2343 76.2951 21.9295 76.8415 22.4371C77.4107 22.9447 78.1279 23.1985 78.9931 23.1985C79.7444 23.1985 80.3364 22.9999 80.769 22.6026C81.2016 22.2054 81.4179 21.6757 81.4179 21.0136C81.4179 20.4178 81.213 19.9212 80.8031 19.524C80.4161 19.1268 79.9266 18.8068 79.3346 18.564C78.7426 18.2992 77.923 17.9902 76.8757 17.6371C75.3502 17.1295 74.098 16.644 73.119 16.1805C72.1627 15.695 71.3317 14.9888 70.6259 14.0619C69.9429 13.113 69.6013 11.8881 69.6013 10.3874C69.6013 8.9971 69.9656 7.79434 70.6942 6.77916C71.4228 5.76399 72.4246 4.99158 73.6996 4.46192C74.9973 3.9102 76.4772 3.63434 78.1393 3.63434C80.8259 3.63434 82.9547 4.25227 84.5257 5.48813C86.1194 6.72399 87.0188 8.4233 87.2237 10.5861H80.9056C80.7918 9.81365 80.4958 9.20675 80.0176 8.76537C79.5623 8.30192 78.9362 8.0702 78.1393 8.0702C77.4563 8.0702 76.8984 8.24675 76.4659 8.59985C76.056 8.95296 75.8511 9.47158 75.8511 10.1557C75.8511 10.7074 76.0333 11.1819 76.3976 11.5792C76.7846 11.9543 77.2627 12.2633 77.8319 12.5061C78.4011 12.7488 79.2208 13.0578 80.2909 13.433C81.8391 13.9405 83.1027 14.4481 84.0817 14.9557C85.0607 15.4412 85.9031 16.1585 86.6089 17.1074C87.3147 18.0564 87.6676 19.2923 87.6676 20.815Z" fill="black"/>
<path d="M108.997 17.6702C108.997 18.1336 108.94 18.6412 108.826 19.193H95.6093C95.6776 20.5833 96.0419 21.5874 96.7021 22.2054C97.3624 22.8012 98.2048 23.0992 99.2294 23.0992C100.095 23.0992 100.812 22.8895 101.381 22.4702C101.95 22.0509 102.326 21.5102 102.508 20.8481H108.689C108.439 22.1502 107.893 23.3199 107.05 24.3571C106.208 25.3723 105.138 26.1778 103.84 26.7736C102.542 27.3474 101.096 27.6343 99.5026 27.6343C97.6356 27.6343 95.9736 27.2592 94.5164 26.5088C93.082 25.7364 91.955 24.633 91.1354 23.1985C90.3157 21.764 89.9059 20.0868 89.9059 18.1668C89.9059 16.2247 90.3044 14.5474 91.1012 13.135C91.9209 11.7005 93.0593 10.6081 94.5164 9.85778C95.9736 9.08537 97.6356 8.69917 99.5026 8.69917C101.392 8.69917 103.054 9.07434 104.489 9.82468C105.923 10.575 107.027 11.6343 107.801 13.0026C108.598 14.3488 108.997 15.9047 108.997 17.6702ZM103.089 16.8095C103.111 15.5957 102.77 14.6909 102.064 14.095C101.381 13.4771 100.527 13.1681 99.5026 13.1681C98.4325 13.1681 97.5445 13.4771 96.8387 14.095C96.1329 14.713 95.7345 15.6178 95.6434 16.8095H103.089Z" fill="black"/>
<path d="M117.881 12.4068C118.61 11.2812 119.543 10.3874 120.681 9.72537C121.843 9.0633 123.095 8.73227 124.438 8.73227V14.7902H122.765C121.217 14.7902 120.01 15.1102 119.145 15.7502C118.302 16.3902 117.881 17.4716 117.881 18.9943V27.4026H112.041V8.93089H117.881V12.4068Z" fill="black"/>
<path d="M135.694 21.8743L139.826 8.93089H146.042L139.28 27.4026H132.039L125.277 8.93089H131.493L135.694 21.8743Z" fill="black"/>
<path d="M147.914 3.73365C147.914 2.87296 148.233 2.16675 148.871 1.61503C149.508 1.04123 150.35 0.754335 151.398 0.754335C152.445 0.754335 153.288 1.04123 153.925 1.61503C154.563 2.16675 154.881 2.87296 154.881 3.73365C154.881 4.57227 154.563 5.27847 153.925 5.85227C153.288 6.40399 152.445 6.67985 151.398 6.67985C150.35 6.67985 149.508 6.40399 148.871 5.85227C148.233 5.27847 147.914 4.57227 147.914 3.73365ZM154.301 8.93089V27.4026H148.461V8.93089H154.301Z" fill="black"/>
<path d="M166.939 8.69917C169.398 8.69917 171.458 9.36123 173.12 10.6854C174.783 11.9874 175.83 13.7861 176.262 16.0812H170.081C169.899 15.2868 169.523 14.6688 168.954 14.2274C168.385 13.7861 167.668 13.5654 166.802 13.5654C165.778 13.5654 164.935 13.9626 164.275 14.7571C163.615 15.5295 163.285 16.6661 163.285 18.1668C163.285 19.6674 163.615 20.815 164.275 21.6095C164.935 22.3819 165.778 22.7681 166.802 22.7681C167.668 22.7681 168.385 22.5474 168.954 22.1061C169.523 21.6647 169.899 21.0468 170.081 20.2523H176.262C175.83 22.5474 174.783 24.3571 173.12 25.6812C171.458 26.9833 169.398 27.6343 166.939 27.6343C165.072 27.6343 163.41 27.2592 161.953 26.5088C160.518 25.7364 159.391 24.633 158.572 23.1985C157.752 21.764 157.342 20.0868 157.342 18.1668C157.342 16.2247 157.741 14.5474 158.538 13.135C159.357 11.7005 160.496 10.6081 161.953 9.85778C163.41 9.08537 165.072 8.69917 166.939 8.69917Z" fill="black"/>
<path d="M197.411 17.6702C197.411 18.1336 197.354 18.6412 197.24 19.193H184.024C184.092 20.5833 184.456 21.5874 185.117 22.2054C185.777 22.8012 186.619 23.0992 187.644 23.0992C188.509 23.0992 189.226 22.8895 189.795 22.4702C190.365 22.0509 190.74 21.5102 190.922 20.8481H197.104C196.853 22.1502 196.307 23.3199 195.465 24.3571C194.622 25.3723 193.552 26.1778 192.254 26.7736C190.957 27.3474 189.511 27.6343 187.917 27.6343C186.05 27.6343 184.388 27.2592 182.931 26.5088C181.496 25.7364 180.369 24.633 179.55 23.1985C178.73 21.764 178.32 20.0868 178.32 18.1668C178.32 16.2247 178.719 14.5474 179.516 13.135C180.335 11.7005 181.474 10.6081 182.931 9.85778C184.388 9.08537 186.05 8.69917 187.917 8.69917C189.807 8.69917 191.469 9.07434 192.903 9.82468C194.338 10.575 195.442 11.6343 196.216 13.0026C197.013 14.3488 197.411 15.9047 197.411 17.6702ZM191.503 16.8095C191.526 15.5957 191.184 14.6909 190.478 14.095C189.795 13.4771 188.942 13.1681 187.917 13.1681C186.847 13.1681 185.959 13.4771 185.253 14.095C184.547 14.713 184.149 15.6178 184.058 16.8095H191.503Z" fill="black"/>
<path d="M82.4083 39.6288C84.594 39.6288 86.3243 40.335 87.5993 41.7474C88.8971 43.1599 89.546 45.1019 89.546 47.5736V58.2992H83.706V48.2357C83.706 46.9999 83.3645 46.0399 82.6815 45.3557C82.0212 44.6495 81.1333 44.2964 80.0176 44.2964C78.8337 44.2964 77.8888 44.6605 77.183 45.3888C76.5 46.1171 76.1585 47.1543 76.1585 48.5005V58.2992H70.3185V39.8274H76.1585V43.204C76.7049 42.1005 77.5132 41.2288 78.5833 40.5888C79.6761 39.9488 80.9511 39.6288 82.4083 39.6288Z" fill="black"/>
<path d="M102.311 39.5957C104.201 39.5957 105.886 39.9819 107.366 40.7543C108.868 41.5047 110.041 42.5971 110.883 44.0316C111.749 45.4661 112.181 47.1433 112.181 49.0633C112.181 50.9833 111.749 52.6605 110.883 54.095C110.041 55.5295 108.868 56.633 107.366 57.4054C105.886 58.1557 104.201 58.5309 102.311 58.5309C100.422 58.5309 98.7254 58.1557 97.2227 57.4054C95.72 56.633 94.5361 55.5295 93.6709 54.095C92.8285 52.6605 92.4073 50.9833 92.4073 49.0633C92.4073 47.1433 92.8285 45.4661 93.6709 44.0316C94.5361 42.5971 95.72 41.5047 97.2227 40.7543C98.7254 39.9819 100.422 39.5957 102.311 39.5957ZM102.311 44.495C101.196 44.495 100.251 44.8923 99.4767 45.6868C98.7254 46.4592 98.3497 47.5847 98.3497 49.0633C98.3497 50.5419 98.7254 51.6674 99.4767 52.4399C100.251 53.2123 101.196 53.5985 102.311 53.5985C103.427 53.5985 104.36 53.2123 105.112 52.4399C105.863 51.6674 106.239 50.5419 106.239 49.0633C106.239 47.5847 105.863 46.4592 105.112 45.6868C104.36 44.8923 103.427 44.495 102.311 44.495Z" fill="black"/>
<path d="M143.077 39.8274L138.194 58.2992H131.671L128.221 45.9185L124.738 58.2992H118.215L113.331 39.8274H119.171L121.698 53.135L125.25 39.8274H131.466L135.12 53.1681L137.647 39.8274H143.077Z" fill="black"/>
<path d="M152.957 58.3793V40.7241H159.112C160.54 40.7241 161.708 40.9741 162.616 41.4741C163.529 41.9684 164.205 42.6379 164.643 43.4828C165.082 44.3276 165.302 45.2701 165.302 46.3103C165.302 47.3506 165.082 48.296 164.643 49.1466C164.211 49.9971 163.541 50.6753 162.633 51.181C161.726 51.681 160.564 51.931 159.147 51.931H154.736V50.0345H159.076C160.054 50.0345 160.84 49.8707 161.433 49.5431C162.026 49.2155 162.456 48.773 162.722 48.2155C162.995 47.6523 163.131 47.0172 163.131 46.3103C163.131 45.6034 162.995 44.9713 162.722 44.4138C162.456 43.8563 162.023 43.4195 161.424 43.1034C160.825 42.7816 160.031 42.6207 159.04 42.6207H155.163V58.3793H152.957Z" fill="black"/>
<path d="M172.59 58.6897C171.724 58.6897 170.939 58.5316 170.233 58.2155C169.528 57.8937 168.967 57.431 168.552 56.8276C168.137 56.2184 167.93 55.4828 167.93 54.6207C167.93 53.8621 168.084 53.2471 168.392 52.7759C168.7 52.2989 169.112 51.9253 169.628 51.6552C170.144 51.3851 170.713 51.1839 171.336 51.0517C171.964 50.9138 172.596 50.8046 173.23 50.7241C174.06 50.6207 174.733 50.5431 175.249 50.4914C175.771 50.4339 176.15 50.3391 176.388 50.2069C176.631 50.0747 176.752 49.8448 176.752 49.5172V49.4483C176.752 48.5977 176.512 47.9368 176.032 47.4655C175.557 46.9943 174.837 46.7586 173.871 46.7586C172.869 46.7586 172.083 46.9713 171.514 47.3966C170.945 47.8218 170.544 48.2759 170.313 48.7586L168.321 48.069C168.677 47.2644 169.151 46.6379 169.744 46.1897C170.343 45.7356 170.995 45.4195 171.701 45.2414C172.412 45.0575 173.112 44.9655 173.799 44.9655C174.238 44.9655 174.742 45.0172 175.311 45.1207C175.887 45.2184 176.441 45.4224 176.975 45.7328C177.514 46.0431 177.962 46.5115 178.317 47.1379C178.673 47.7644 178.851 48.6034 178.851 49.6552V58.3793H176.752V56.5862H176.645C176.503 56.8736 176.266 57.181 175.934 57.5086C175.602 57.8362 175.16 58.1149 174.609 58.3448C174.057 58.5747 173.384 58.6897 172.59 58.6897ZM172.91 56.8621C173.74 56.8621 174.44 56.704 175.009 56.3879C175.584 56.0718 176.017 55.6638 176.307 55.1638C176.604 54.6638 176.752 54.1379 176.752 53.5862V51.7241C176.663 51.8276 176.468 51.9224 176.165 52.0086C175.869 52.0891 175.525 52.1609 175.134 52.2241C174.748 52.2816 174.372 52.3333 174.004 52.3793C173.642 52.4195 173.349 52.454 173.124 52.4828C172.578 52.5517 172.068 52.6638 171.594 52.819C171.125 52.9684 170.746 53.1954 170.455 53.5C170.171 53.7989 170.029 54.2069 170.029 54.7241C170.029 55.431 170.298 55.9655 170.838 56.3276C171.383 56.6839 172.074 56.8621 172.91 56.8621Z" fill="black"/>
<path d="M182.682 58.3793V45.1379H184.71V47.1379H184.852C185.101 46.4828 185.552 45.9511 186.204 45.5431C186.856 45.1351 187.591 44.931 188.41 44.931C188.564 44.931 188.756 44.9339 188.988 44.9397C189.219 44.9454 189.394 44.954 189.512 44.9655V47.0345C189.441 47.0172 189.278 46.9914 189.023 46.9569C188.774 46.9167 188.51 46.8966 188.232 46.8966C187.568 46.8966 186.975 47.0316 186.453 47.3017C185.937 47.5661 185.528 47.9339 185.226 48.4052C184.929 48.8707 184.781 49.4023 184.781 50V58.3793H182.682Z" fill="black"/>
<path d="M198.797 45.1379V46.8621H191.718V45.1379H198.797ZM193.781 41.9655H195.88V54.5862C195.88 55.1609 195.966 55.592 196.138 55.8793C196.316 56.1609 196.541 56.3506 196.814 56.4483C197.093 56.5402 197.386 56.5862 197.695 56.5862C197.926 56.5862 198.116 56.5747 198.264 56.5517C198.412 56.523 198.531 56.5 198.62 56.4828L199.046 58.3103C198.904 58.3621 198.706 58.4138 198.451 58.4655C198.196 58.523 197.872 58.5517 197.481 58.5517C196.888 58.5517 196.307 58.4282 195.738 58.181C195.175 57.9339 194.706 57.5575 194.333 57.0517C193.965 56.546 193.781 55.908 193.781 55.1379V41.9655Z" fill="black"/>
<path d="M204.054 50.4138V58.3793H201.955V45.1379H203.982V47.2069H204.16C204.48 46.5345 204.967 45.9943 205.619 45.5862C206.271 45.1724 207.113 44.9655 208.145 44.9655C209.07 44.9655 209.879 45.1494 210.573 45.5172C211.266 45.8793 211.806 46.431 212.191 47.1724C212.577 47.908 212.769 48.8391 212.769 49.9655V58.3793H210.67V50.1034C210.67 49.0632 210.392 48.2529 209.834 47.6724C209.277 47.0862 208.512 46.7931 207.54 46.7931C206.87 46.7931 206.271 46.9339 205.743 47.2155C205.222 47.4971 204.81 47.908 204.507 48.4483C204.205 48.9885 204.054 49.6437 204.054 50.4138Z" fill="black"/>
<path d="M222.332 58.6552C221.016 58.6552 219.881 58.3736 218.926 57.8103C217.977 57.2414 217.245 56.4483 216.729 55.431C216.219 54.408 215.964 53.2184 215.964 51.8621C215.964 50.5057 216.219 49.3103 216.729 48.2759C217.245 47.2356 217.963 46.4253 218.882 45.8448C219.807 45.2586 220.886 44.9655 222.119 44.9655C222.83 44.9655 223.533 45.0805 224.227 45.3103C224.92 45.5402 225.552 45.9138 226.121 46.431C226.69 46.9425 227.144 47.6207 227.482 48.4655C227.82 49.3103 227.989 50.3506 227.989 51.5862V52.4483H217.459V50.6897H225.854C225.854 49.9425 225.7 49.2759 225.392 48.6897C225.089 48.1034 224.657 47.6408 224.093 47.3017C223.536 46.9626 222.878 46.7931 222.119 46.7931C221.283 46.7931 220.56 46.9943 219.949 47.3966C219.344 47.7931 218.879 48.3103 218.553 48.9483C218.226 49.5862 218.063 50.2701 218.063 51V52.1724C218.063 53.1724 218.241 54.0201 218.597 54.7155C218.959 55.4052 219.46 55.931 220.1 56.2931C220.74 56.6494 221.484 56.8276 222.332 56.8276C222.884 56.8276 223.382 56.7529 223.826 56.6034C224.277 56.4483 224.665 56.2184 224.992 55.9138C225.318 55.6034 225.57 55.2184 225.748 54.7586L227.775 55.3103C227.562 55.977 227.203 56.5632 226.699 57.069C226.195 57.569 225.573 57.9598 224.831 58.2414C224.09 58.5172 223.257 58.6552 222.332 58.6552Z" fill="black"/>
<path d="M231.182 58.3793V45.1379H233.209V47.1379H233.352C233.601 46.4828 234.051 45.9511 234.703 45.5431C235.356 45.1351 236.091 44.931 236.909 44.931C237.063 44.931 237.256 44.9339 237.487 44.9397C237.718 44.9454 237.893 44.954 238.012 44.9655V47.0345C237.941 47.0172 237.778 46.9914 237.523 46.9569C237.274 46.9167 237.01 46.8966 236.731 46.8966C236.067 46.8966 235.474 47.0316 234.953 47.3017C234.437 47.5661 234.028 47.9339 233.725 48.4052C233.429 48.8707 233.28 49.4023 233.28 50V58.3793H231.182Z" fill="black"/>
</svg>
