<svg width="18" height="23" viewBox="0 0 18 23" fill="none" xmlns="http://www.w3.org/2000/svg">
<path d="M10.8333 1.91699H3.49999C3.01376 1.91699 2.54744 2.11893 2.20363 2.47837C1.85981 2.83782 1.66666 3.32533 1.66666 3.83366V19.167C1.66666 19.6753 1.85981 20.1628 2.20363 20.5223C2.54744 20.8817 3.01376 21.0837 3.49999 21.0837H14.5C14.9862 21.0837 15.4525 20.8817 15.7964 20.5223C16.1402 20.1628 16.3333 19.6753 16.3333 19.167V7.66699M10.8333 1.91699L16.3333 7.66699M10.8333 1.91699L10.8333 7.66699H16.3333M12.6667 12.4587H5.33332M12.6667 16.292H5.33332M7.16666 8.62533H5.33332" stroke="#11BE7A" stroke-width="2" stroke-linecap="round" stroke-linejoin="round"/>
</svg>
