<svg width="20" height="20" viewBox="0 0 20 20" fill="none" xmlns="http://www.w3.org/2000/svg">
<path d="M6 14.5V10.5C6 9.43913 6.42143 8.42172 7.17157 7.67157C7.92172 6.92143 8.93913 6.5 10 6.5C11.0609 6.5 12.0783 6.92143 12.8284 7.67157C13.5786 8.42172 14 9.43913 14 10.5V14.5M1 10.5H2M10 1.5V2.5M18 10.5H19M3.6 4.1L4.3 4.8M16.4 4.1L15.7 4.8M4 15.5C4 15.2348 4.10536 14.9804 4.29289 14.7929C4.48043 14.6054 4.73478 14.5 5 14.5H15C15.2652 14.5 15.5196 14.6054 15.7071 14.7929C15.8946 14.9804 16 15.2348 16 15.5V17.5C16 17.7652 15.8946 18.0196 15.7071 18.2071C15.5196 18.3946 15.2652 18.5 15 18.5H5C4.73478 18.5 4.48043 18.3946 4.29289 18.2071C4.10536 18.0196 4 17.7652 4 17.5V15.5Z" stroke="white" stroke-width="2" stroke-linecap="round" stroke-linejoin="round"/>
</svg>
