<svg width="16" height="20" viewBox="0 0 16 20" fill="none" xmlns="http://www.w3.org/2000/svg">
<path d="M12 7.5C12 12.83 4 12.83 4 7.5H6C6 10.17 10 10.17 10 7.5M16 16.5V19.5H0V16.5C0 13.83 5.33 12.5 8 12.5C10.67 12.5 16 13.83 16 16.5ZM14.1 16.5C14.1 15.86 10.97 14.4 8 14.4C5.03 14.4 1.9 15.86 1.9 16.5V17.6H14.1M8.5 0.5C8.78 0.5 9 0.72 9 1V4H10V1.5C10.7077 1.82752 11.3006 2.36019 11.7019 3.02889C12.1031 3.69758 12.294 4.47142 12.25 5.25C12.25 5.25 12.95 5.39 13 6.5H3C3 5.39 3.75 5.25 3.75 5.25C3.70595 4.47142 3.89693 3.69758 4.29814 3.02889C4.69936 2.36019 5.29229 1.82752 6 1.5V4H7V1C7 0.72 7.22 0.5 7.5 0.5" fill="white"/>
</svg>
